<svg width="20" height="20" viewBox="0 0 20 20" fill="none" xmlns="http://www.w3.org/2000/svg">
<path d="M10.8333 18.3333H4.16663C2.49996 18.3333 1.66663 17.5 1.66663 15.8333V9.16667C1.66663 7.5 2.49996 6.66667 4.16663 6.66667M10.8333 18.3333C9.16663 18.3333 8.33329 17.5 8.33329 15.8333M10.8333 18.3333H15.8333C17.5 18.3333 18.3333 17.5 18.3333 15.8333V4.16667C18.3333 2.5 17.5 1.66667 15.8333 1.66667H10.8333C9.16663 1.66667 8.33329 2.5 8.33329 4.16667M4.16663 6.66667H8.33329M4.16663 6.66667V5C4.16663 4.08333 4.91663 3.33333 5.83329 3.33333H8.42495C8.35828 3.58333 8.33329 3.85833 8.33329 4.16667M8.33329 6.66667V15.8333M8.33329 6.66667V4.16667M8.33329 15.8333V4.16667M11.6666 6.66667V10.8333M15 6.66667V10.8333M4.99996 10.8333V14.1667M14.1666 14.1667H12.5C12.0416 14.1667 11.6666 14.5417 11.6666 15V18.3333H15V15C15 14.5417 14.625 14.1667 14.1666 14.1667Z" stroke="black" stroke-width="1.5" stroke-miterlimit="10" stroke-linecap="round" stroke-linejoin="round"/>
</svg>
