<svg width="19" height="24" viewBox="0 0 19 24" fill="none" xmlns="http://www.w3.org/2000/svg">
<path d="M16.4545 1H2.54545C1.69193 1 1 1.75767 1 2.69231V21.3077C1 22.2424 1.69193 23 2.54545 23H16.4545C17.3081 23 18 22.2424 18 21.3077V2.69231C18 1.75767 17.3081 1 16.4545 1Z" stroke="black" stroke-width="1.5" stroke-linecap="round" stroke-linejoin="round"/>
<path d="M1 9.46149H18" stroke="black" stroke-width="1.5" stroke-linecap="round" stroke-linejoin="round"/>
<path d="M5.24998 14.5385C5.0366 14.5385 4.86362 14.3491 4.86362 14.1154C4.86362 13.8817 5.0366 13.6923 5.24998 13.6923" stroke="black" stroke-width="1.5" stroke-linecap="round" stroke-linejoin="round"/>
<path d="M5.25 14.5385C5.46338 14.5385 5.63636 14.3491 5.63636 14.1154C5.63636 13.8817 5.46338 13.6923 5.25 13.6923" stroke="black" stroke-width="1.5" stroke-linecap="round" stroke-linejoin="round"/>
<path d="M9.5 14.5385C9.28661 14.5385 9.11363 14.3491 9.11363 14.1154C9.11363 13.8817 9.28661 13.6923 9.5 13.6923" stroke="black" stroke-width="1.5" stroke-linecap="round" stroke-linejoin="round"/>
<path d="M9.5 14.5385C9.71338 14.5385 9.88636 14.3491 9.88636 14.1154C9.88636 13.8817 9.71338 13.6923 9.5 13.6923" stroke="black" stroke-width="1.5" stroke-linecap="round" stroke-linejoin="round"/>
<path d="M13.75 14.5385C13.5366 14.5385 13.3636 14.3491 13.3636 14.1154C13.3636 13.8817 13.5366 13.6923 13.75 13.6923" stroke="black" stroke-width="1.5" stroke-linecap="round" stroke-linejoin="round"/>
<path d="M13.75 14.5385C13.9634 14.5385 14.1364 14.3491 14.1364 14.1154C14.1364 13.8817 13.9634 13.6923 13.75 13.6923" stroke="black" stroke-width="1.5" stroke-linecap="round" stroke-linejoin="round"/>
<path d="M5.24998 18.7692C5.0366 18.7692 4.86362 18.5799 4.86362 18.3462C4.86362 18.1125 5.0366 17.9231 5.24998 17.9231" stroke="black" stroke-width="1.5" stroke-linecap="round" stroke-linejoin="round"/>
<path d="M5.25 18.7692C5.46338 18.7692 5.63636 18.5799 5.63636 18.3462C5.63636 18.1125 5.46338 17.9231 5.25 17.9231" stroke="black" stroke-width="1.5" stroke-linecap="round" stroke-linejoin="round"/>
<path d="M9.5 18.7692C9.28661 18.7692 9.11363 18.5799 9.11363 18.3462C9.11363 18.1125 9.28661 17.9231 9.5 17.9231" stroke="black" stroke-width="1.5" stroke-linecap="round" stroke-linejoin="round"/>
<path d="M9.5 18.7692C9.71338 18.7692 9.88636 18.5799 9.88636 18.3462C9.88636 18.1125 9.71338 17.9231 9.5 17.9231" stroke="black" stroke-width="1.5" stroke-linecap="round" stroke-linejoin="round"/>
<path d="M13.75 18.7692C13.5366 18.7692 13.3636 18.5799 13.3636 18.3462C13.3636 18.1125 13.5366 17.9231 13.75 17.9231" stroke="black" stroke-width="1.5" stroke-linecap="round" stroke-linejoin="round"/>
<path d="M13.75 18.7692C13.9634 18.7692 14.1364 18.5799 14.1364 18.3462C14.1364 18.1125 13.9634 17.9231 13.75 17.9231" stroke="black" stroke-width="1.5" stroke-linecap="round" stroke-linejoin="round"/>
<path d="M14.1364 5.23071H12.5909" stroke="black" stroke-width="1.5" stroke-linecap="round" stroke-linejoin="round"/>
</svg>
