<svg width="20" height="20" viewBox="0 0 20 20" fill="none" xmlns="http://www.w3.org/2000/svg">
<path d="M11.5773 8.86486C11.5773 8.82009 11.5358 8.78378 11.4845 8.78378C11.4333 8.78378 11.3918 8.82009 11.3918 8.86486V11.1351C11.3918 11.1799 11.4333 11.2162 11.4845 11.2162C11.5358 11.2162 11.5773 11.1799 11.5773 11.1351V8.86486Z" fill="black"/>
<path d="M8.51546 8.78378C8.56671 8.78378 8.60825 8.82009 8.60825 8.86486V11.1351C8.60825 11.1799 8.56671 11.2162 8.51546 11.2162C8.46422 11.2162 8.42268 11.1799 8.42268 11.1351V8.86486C8.42268 8.82009 8.46422 8.78378 8.51546 8.78378Z" fill="black"/>
<path fill-rule="evenodd" clip-rule="evenodd" d="M1.09278 1C1.04154 1 1 1.0363 1 1.08108V18.9189C1 18.9637 1.04154 19 1.09278 19H18.9072C18.9585 19 19 18.9637 19 18.9189V1.08108C19 1.0363 18.9585 1 18.9072 1H1.09278ZM10.0928 1.16216V18.8378H18.8144V1.16216H10.0928ZM9.90722 1.16216H1.18557V18.8378H9.90722V1.16216Z" fill="black"/>
<path d="M11.5773 8.86486C11.5773 8.82009 11.5358 8.78378 11.4845 8.78378C11.4333 8.78378 11.3918 8.82009 11.3918 8.86486V11.1351C11.3918 11.1799 11.4333 11.2162 11.4845 11.2162C11.5358 11.2162 11.5773 11.1799 11.5773 11.1351V8.86486Z" stroke="black" stroke-width="1.4" stroke-linecap="round" stroke-linejoin="round"/>
<path d="M8.51546 8.78378C8.56671 8.78378 8.60825 8.82009 8.60825 8.86486V11.1351C8.60825 11.1799 8.56671 11.2162 8.51546 11.2162C8.46422 11.2162 8.42268 11.1799 8.42268 11.1351V8.86486C8.42268 8.82009 8.46422 8.78378 8.51546 8.78378Z" stroke="black" stroke-width="1.4" stroke-linecap="round" stroke-linejoin="round"/>
<path fill-rule="evenodd" clip-rule="evenodd" d="M1.09278 1C1.04154 1 1 1.0363 1 1.08108V18.9189C1 18.9637 1.04154 19 1.09278 19H18.9072C18.9585 19 19 18.9637 19 18.9189V1.08108C19 1.0363 18.9585 1 18.9072 1H1.09278ZM10.0928 1.16216V18.8378H18.8144V1.16216H10.0928ZM9.90722 1.16216H1.18557V18.8378H9.90722V1.16216Z" stroke="black" stroke-width="1.4" stroke-linecap="round" stroke-linejoin="round"/>
</svg>
