<svg width="20" height="20" viewBox="0 0 20 20" fill="none" xmlns="http://www.w3.org/2000/svg">
<path fill-rule="evenodd" clip-rule="evenodd" d="M0.714286 2.85714C0.319797 2.85714 0 3.17694 0 3.57143C0 3.96591 0.319797 4.28571 0.714286 4.28571H1.07143V15.7143H0.714286C0.319797 15.7143 0 16.0341 0 16.4286C0 16.823 0.319797 17.1429 0.714286 17.1429H19.2857C19.6801 17.1429 20 16.823 20 16.4286C20 16.0341 19.6801 15.7143 19.2857 15.7143H18.9286V4.28571H19.2857C19.6801 4.28571 20 3.96591 20 3.57143C20 3.17694 19.6801 2.85714 19.2857 2.85714H0.714286ZM6.60714 7.14286C6.60714 6.64974 6.2074 6.25 5.71429 6.25C5.22117 6.25 4.82143 6.64974 4.82143 7.14286V12.8571C4.82143 13.3503 5.22117 13.75 5.71429 13.75C6.2074 13.75 6.60714 13.3503 6.60714 12.8571V7.14286ZM10 6.25C10.4931 6.25 10.8929 6.64974 10.8929 7.14286V12.8571C10.8929 13.3503 10.4931 13.75 10 13.75C9.50689 13.75 9.10714 13.3503 9.10714 12.8571V7.14286C9.10714 6.64974 9.50689 6.25 10 6.25ZM15.1786 7.14286C15.1786 6.64974 14.7789 6.25 14.2857 6.25C13.7926 6.25 13.3929 6.64974 13.3929 7.14286V12.8571C13.3929 13.3503 13.7926 13.75 14.2857 13.75C14.7789 13.75 15.1786 13.3503 15.1786 12.8571V7.14286Z" fill="black"/>
</svg>
