<svg width="24" height="24" viewBox="0 0 24 24" fill="none" xmlns="http://www.w3.org/2000/svg">
<path d="M6 5.00002V7.00002M10 5.00002V7.00002M6 17V19M10 17V19M14 6.00002H18M14 18H18M19.32 10H4.69C3.21 10 2.00999 8.79002 2.00999 7.32002V4.69002C2.00999 3.21002 3.22 2.01001 4.69 2.01001H19.32C20.8 2.01001 22 3.22002 22 4.69002V7.32002C22 8.79002 20.79 10 19.32 10ZM19.32 22H4.69C3.21 22 2.00999 20.79 2.00999 19.32V16.69C2.00999 15.21 3.22 14.01 4.69 14.01H19.32C20.8 14.01 22 15.22 22 16.69V19.32C22 20.79 20.79 22 19.32 22Z" stroke="#292D32" stroke-width="1.5" stroke-linecap="round" stroke-linejoin="round"/>
</svg>
