<svg width="20" height="20" viewBox="0 0 20 20" fill="none" xmlns="http://www.w3.org/2000/svg">
<path d="M14.2188 8.125V5.78125M11.4062 8.125V5.78125M8.59375 14.2188V11.875M5.78125 14.2188V11.875M8.59375 8.125V5.78125M5.78125 8.125L5.78125 5.78125M14.6875 2.5L5.3125 2.5C3.7592 2.5 2.5 3.7592 2.5 5.3125C2.5 6.8658 2.5 13.1342 2.5 14.6875C2.5 16.2408 3.7592 17.5 5.3125 17.5C5.3125 17.5 13.1342 17.5 14.6875 17.5C16.2408 17.5 17.5 16.2408 17.5 14.6875V5.3125C17.5 3.7592 16.2408 2.5 14.6875 2.5Z" stroke="black" stroke-width="1.4" stroke-linecap="round" stroke-linejoin="round"/>
</svg>
