<svg width="20" height="20" viewBox="0 0 20 20" fill="none" xmlns="http://www.w3.org/2000/svg">
<path d="M2.94253 15.5988C2.66916 15.8721 2.66916 16.3154 2.94253 16.5887C3.21589 16.8621 3.65911 16.8621 3.93247 16.5887L2.94253 15.5988ZM7.1875 12.3438L7.68247 11.8488C7.40911 11.5754 6.96589 11.5754 6.69253 11.8488L7.1875 12.3438ZM9.0625 14.2188L8.56753 14.7137C8.84089 14.9871 9.28411 14.9871 9.55747 14.7137L9.0625 14.2188ZM13.2812 10L13.7762 9.50503C13.5029 9.23166 13.0596 9.23166 12.7863 9.50503L13.2812 10ZM16.5363 14.245C16.8096 14.5183 17.2529 14.5183 17.5262 14.245C17.7996 13.9716 17.7996 13.5284 17.5262 13.255L16.5363 14.245ZM3.93247 16.5887L7.68247 12.8387L6.69253 11.8488L2.94253 15.5988L3.93247 16.5887ZM6.69253 12.8387L8.56753 14.7137L9.55747 13.7238L7.68247 11.8488L6.69253 12.8387ZM9.55747 14.7137L13.7762 10.495L12.7863 9.50503L8.56753 13.7238L9.55747 14.7137ZM12.7863 10.495L16.5363 14.245L17.5262 13.255L13.7762 9.50503L12.7863 10.495ZM5.3125 3.2H14.6875V1.8H5.3125V3.2ZM16.8 5.3125V14.6875H18.2V5.3125H16.8ZM14.6875 16.8H5.3125V18.2H14.6875V16.8ZM3.2 14.6875V5.3125H1.8V14.6875H3.2ZM5.3125 16.8C4.1458 16.8 3.2 15.8542 3.2 14.6875H1.8C1.8 16.6274 3.3726 18.2 5.3125 18.2V16.8ZM16.8 14.6875C16.8 15.8542 15.8542 16.8 14.6875 16.8V18.2C16.6274 18.2 18.2 16.6274 18.2 14.6875H16.8ZM14.6875 3.2C15.8542 3.2 16.8 4.1458 16.8 5.3125H18.2C18.2 3.3726 16.6274 1.8 14.6875 1.8V3.2ZM5.3125 1.8C3.3726 1.8 1.8 3.3726 1.8 5.3125H3.2C3.2 4.1458 4.1458 3.2 5.3125 3.2V1.8ZM7.425 6.71875C7.425 7.1088 7.1088 7.425 6.71875 7.425V8.825C7.882 8.825 8.825 7.882 8.825 6.71875H7.425ZM6.71875 7.425C6.3287 7.425 6.0125 7.1088 6.0125 6.71875H4.6125C4.6125 7.882 5.5555 8.825 6.71875 8.825V7.425ZM6.0125 6.71875C6.0125 6.3287 6.3287 6.0125 6.71875 6.0125V4.6125C5.5555 4.6125 4.6125 5.5555 4.6125 6.71875H6.0125ZM6.71875 6.0125C7.1088 6.0125 7.425 6.3287 7.425 6.71875H8.825C8.825 5.5555 7.882 4.6125 6.71875 4.6125V6.0125Z" fill="black"/>
</svg>
