<svg width="136" height="140" viewBox="0 0 136 140" fill="none" xmlns="http://www.w3.org/2000/svg">
<path d="M96.9812 18.8333C109.51 18.8333 119.585 28.9729 119.585 41.4375C119.585 53.6437 109.898 63.5895 97.8208 64.0416C97.3042 63.977 96.7229 63.977 96.1417 64.0416M109.446 122.167C114.096 121.198 118.487 119.325 122.104 116.548C132.179 108.992 132.179 96.527 122.104 88.9708C118.552 86.2583 114.225 84.45 109.64 83.4166M50.1583 63.202C49.5125 63.1375 48.7375 63.1375 48.0271 63.202C32.6562 62.6854 20.45 50.0916 20.45 34.5916C20.45 18.7687 33.2375 5.91663 49.125 5.91663C64.9479 5.91663 77.8 18.7687 77.8 34.5916C77.7354 50.0916 65.5292 62.6854 50.1583 63.202ZM17.8667 87.0333C2.23748 97.4958 2.23748 114.546 17.8667 124.944C35.6271 136.827 64.7542 136.827 82.5146 124.944C98.1437 114.481 98.1437 97.4312 82.5146 87.0333C64.8187 75.2145 35.6917 75.2145 17.8667 87.0333Z" stroke="#292D32" stroke-width="11" stroke-linecap="round" stroke-linejoin="round"/>
</svg>
