<svg width="122" height="164" viewBox="0 0 122 164" fill="none" xmlns="http://www.w3.org/2000/svg">
<path fill-rule="evenodd" clip-rule="evenodd" d="M17.1817 2.83417C11.188 5.24233 11.3751 5.02363 10.3447 10.2791C8.56538 19.0378 11.1873 95.6777 13.7165 111.006C14.3719 114.729 18.3048 115.823 27.2032 114.838C31.6045 114.4 37.0369 114.4 39.2847 114.838C45.0913 116.042 46.6836 115.275 47.3391 110.458C48.1816 103.889 59.3271 47.9425 61.3878 26.3733C61.758 22.1932 60.3594 18.065 57.6412 15.3149C54.923 12.5648 37.6924 -5.48629 17.1817 2.83417ZM44.9042 14.658C46.6836 15.2056 47.0585 15.9718 46.5901 18.1622C46.3087 19.6947 34.4143 93.1593 33.2904 100.714C32.7284 104.875 32.6349 104.875 28.7955 104.546L24.8612 104.218C23.5502 70.8247 22.8947 47.066 20.0857 20.789C19.7101 17.5053 21.6773 14.5486 24.487 14.0011C31.2304 12.7974 38.5357 12.5779 44.9042 14.658ZM78.8074 36.0077C76.2791 37.5402 75.9049 38.7455 72.5332 56.591C65.1344 95.8963 63.7291 107.393 65.7898 110.458C68.6931 114.729 84.0528 120.312 91.5452 119.874C94.8233 119.655 97.8202 117.356 99.3182 113.962C109.527 89.9849 115.708 75.8606 120.859 59.657C121.983 56.1537 121.141 52.2121 118.706 49.8031C108.216 38.9634 86.2063 31.4092 78.8074 36.0077ZM98.5692 47.1754C108.216 51.4458 109.715 52.4308 108.778 53.7446C108.122 54.7305 87.7986 108.707 86.7683 109.91C85.6444 111.335 77.9649 108.597 78.6204 107.064C79.7443 104.436 83.865 83.7437 87.2367 62.8323C89.1096 51.1169 90.6084 44.4383 91.3574 44.4383C92.1072 44.5477 95.291 45.7522 98.5692 47.1762V47.1754ZM14.6525 125.02C-10.4473 135.421 0.417492 163.34 29.6381 163.34C47.0585 163.34 56.7051 156.223 56.1432 147.903C55.4877 138.815 30.0122 118.67 14.6533 125.02H14.6525ZM71.5029 132.903C53.1456 143.523 62.6052 162.245 86.2999 162.245C101.098 162.245 112.618 151.187 107.279 142.209C102.596 134.545 79.2759 128.414 71.5029 132.903ZM38.5357 138.597C46.3087 145.056 44.9977 148.997 33.6653 153.048C21.5837 157.318 11.9371 153.705 11.9371 146.698C11.8435 143.414 22.7076 125.458 38.5357 138.597ZM89.4845 140.02C100.911 147.683 93.6987 158.96 80.5868 153.925C74.0313 151.406 72.5325 146.26 76.5597 140.238C79.5572 135.421 82.554 135.421 89.4845 140.02Z" fill="#F70909"/>
</svg>
